<svg id="Capa_1" data-name="Capa 1" xmlns="http://www.w3.org/2000/svg" viewBox="0 0 47 47"><defs><style>.cls-1{fill:#efefef;}.cls-2{fill:#ff530d;}</style></defs><title>Artboard 1</title><g id="Layer_1" data-name="Layer 1"><path class="cls-1" d="M41.19,9.37c0-.84-.85-1.08-1.51-1.23v2.44C40.41,10.53,41.19,10.18,41.19,9.37Z"/><path class="cls-1" d="M38.94,4.18c-.84,0-1.38.52-1.38,1.05s.46,1,1.38,1.16V4.18Z"/><path class="cls-1" d="M39.28,14.87a7.44,7.44,0,1,0-7.43-7.44A7.45,7.45,0,0,0,39.28,14.87ZM36,5.51C36,3.84,37.4,3,38.94,2.93V2.28a.37.37,0,1,1,.74,0v.65c1,0,2.92.63,2.92,1.83a.75.75,0,0,1-.77.77c-.8,0-.79-1.32-2.15-1.35V6.52c1.62.34,3.06.82,3.06,2.72,0,1.64-1.23,2.48-3.06,2.59v.76a.37.37,0,1,1-.74,0v-.76c-2.08-.05-3.11-1.29-3.11-2.26a.71.71,0,0,1,.76-.78c1.38,0,.31,1.7,2.35,1.79V8C37.12,7.68,36,6.88,36,5.51Z"/><path class="cls-2" d="M9.35,33.11H3A2.14,2.14,0,0,0,.81,35.25v9.61A2.14,2.14,0,0,0,3,47h6.4a2.14,2.14,0,0,0,2.14-2.14V35.25A2.14,2.14,0,0,0,9.35,33.11Z"/><path class="cls-2" d="M25.92,25.64H19.51a2.13,2.13,0,0,0-2.14,2.13V44.86A2.14,2.14,0,0,0,19.51,47h6.41a2.14,2.14,0,0,0,2.14-2.14V27.77A2.13,2.13,0,0,0,25.92,25.64Z"/><path class="cls-2" d="M42.49,17.09H36.08a2.14,2.14,0,0,0-2.14,2.14V44.86A2.14,2.14,0,0,0,36.08,47h6.41a2.13,2.13,0,0,0,2.13-2.14V19.23A2.13,2.13,0,0,0,42.49,17.09Z"/><path class="cls-2" d="M29.67,11l-5.3-1.11a1.08,1.08,0,0,0-1.07.41,1,1,0,0,0-.09,1.14l1.18,2.21L.86,25.75a1.07,1.07,0,0,0,.49,2,1,1,0,0,0,.49-.12L25.39,15.51l1.08,2a1.06,1.06,0,0,0,.94.57h.05a1.07,1.07,0,0,0,.94-.66l2.05-5a1.07,1.07,0,0,0-.05-.91A1.1,1.1,0,0,0,29.67,11Z"/></g></svg>